<?xml version="1.0" encoding="utf-8"?>
<!-- Generator: Adobe Illustrator 16.0.0, SVG Export Plug-In . SVG Version: 6.00 Build 0)  -->
<!DOCTYPE svg PUBLIC "-//W3C//DTD SVG 1.1//EN" "http://www.w3.org/Graphics/SVG/1.1/DTD/svg11.dtd">
<svg version="1.1" id="레이어_1" xmlns="http://www.w3.org/2000/svg" xmlns:xlink="http://www.w3.org/1999/xlink" x="0px"
	 y="0px" width="120px" height="55px" viewBox="0 0 120 55" enable-background="new 0 0 120 55" xml:space="preserve">
<g>
	<g>
		<g>
			<path fill="#ffffff" d="M95.054,23.428l-8.046,0.037c2,2.146,3.124,4.5,3.124,6.881c0,8.936-16.731,17.844-35.245,17.844
				c-5.758,0-11.403-0.908-16.334-2.381h-5.742c6.741,1.957,14.443,3.066,22.077,3.066c21.075,0.021,43.702-8.277,43.729-18.51
				C98.616,27.896,97.29,25.576,95.054,23.428z"/>
		</g>
		<g>
			<path fill="#ffffff" d="M55.327,11.751c-20.817,0-43.061,8.266-43.087,18.284c0,2.909,1.663,5.643,4.506,8.07l7.225-0.055
				c-2.527-2.389-3.958-5.055-3.958-7.705c0.028-8.9,17.108-17.834,35.463-17.834c8.277,0,16.135,1.801,22.259,4.581l6.619-0.018
				C76.156,13.811,65.553,11.785,55.327,11.751z"/>
		</g>
		<g>
			<polygon fill="#ffffff" fill-rule="evenodd" clip-rule="evenodd" points="53.242,28.111 17.599,52.379 120,0 67.189,35.212 0,50.084 			"/>
		</g>
	</g>
</g>
</svg>
